<?xml version="1.0" standalone="no"?>
<!DOCTYPE svg PUBLIC "-//W3C//DTD SVG 20010904//EN"
 "http://www.w3.org/TR/2001/REC-SVG-20010904/DTD/svg10.dtd">
<svg version="1.0" xmlns="http://www.w3.org/2000/svg"
 width="1050.000000pt" height="600.000000pt" viewBox="0 0 1050.000000 600.000000"
 preserveAspectRatio="xMidYMid meet">

<g transform="translate(0.000000,600.000000) scale(0.100000,-0.100000)"
fill="#000000" stroke="none">
<path d="M5272 4800 c-269 -16 -652 -63 -812 -101 -119 -27 -282 -110 -415
-211 -143 -108 -349 -308 -492 -480 l-113 -136 -78 -7 c-114 -10 -413 -53
-527 -76 -279 -58 -600 -169 -795 -276 -184 -102 -445 -316 -569 -467 l-55
-66 -78 0 -78 0 0 -188 c0 -183 -1 -190 -34 -302 -18 -63 -37 -134 -41 -157
-6 -41 -8 -43 -43 -43 -169 0 -255 -65 -255 -190 0 -66 20 -109 70 -147 32
-24 47 -28 119 -31 l82 -4 6 -36 c8 -51 48 -106 93 -128 30 -15 66 -19 178
-22 l141 -4 34 -66 c71 -138 199 -271 341 -355 343 -203 786 -155 1086 117 65
59 160 183 193 254 l25 52 1756 0 1757 0 27 -52 c138 -263 394 -446 686 -489
285 -41 586 64 790 277 72 76 116 137 154 213 l25 50 338 3 c297 3 341 5 369
20 45 25 91 85 98 130 l7 38 108 0 c119 0 151 8 194 48 64 60 75 158 27 233
-43 69 -78 81 -250 88 l-145 6 -12 50 c-6 28 -21 93 -33 145 -53 232 -138 472
-216 615 -114 209 -486 616 -809 883 -532 442 -1146 707 -1851 798 -141 18
-775 27 -1003 14z m357 -475 c49 -25 52 -46 49 -374 l-3 -303 -28 -24 -28 -24
-750 0 -750 0 -24 25 c-15 14 -25 36 -25 53 0 50 152 355 223 445 103 132 506
209 1125 215 143 2 189 -1 211 -13z m497 -35 c546 -93 940 -267 1134 -501 42
-50 50 -67 50 -100 0 -29 -7 -47 -25 -64 l-24 -25 -670 0 -670 0 -28 24 -28
24 0 305 0 305 24 26 c31 33 74 34 237 6z m-1706 -1545 l0 -505 -105 0 -105 0
0 505 0 505 105 0 105 0 0 -505z m2658 408 l3 -92 32 19 c22 14 50 20 88 20
72 0 115 -27 149 -95 25 -50 25 -51 25 -330 0 -208 -3 -290 -13 -318 -28 -77
-93 -127 -164 -127 -42 1 -74 19 -99 56 l-19 29 0 -37 0 -38 -105 0 -105 0 0
505 0 506 103 -3 102 -3 3 -92z m-4528 65 c69 -35 91 -87 91 -216 0 -113 -11
-147 -61 -184 l-30 -21 31 -19 c51 -31 73 -95 73 -218 -1 -181 -46 -283 -139
-309 -22 -6 -111 -11 -197 -11 l-158 0 0 500 0 500 173 0 c159 0 176 -2 217
-22z m1540 -68 l0 -90 30 0 30 0 0 -74 c0 -74 0 -75 -27 -78 l-28 -3 -3 -249
c-2 -260 1 -283 40 -273 16 5 18 -2 18 -68 l0 -73 -65 -7 c-117 -13 -164 8
-184 82 -7 22 -11 151 -11 316 l0 277 -25 0 c-24 0 -25 2 -25 75 0 73 1 75 25
75 25 0 25 1 25 90 l0 90 100 0 100 0 0 -90z m1636 71 c53 -24 82 -66 95 -138
24 -126 -6 -243 -68 -272 -27 -13 -27 -14 -7 -21 32 -12 72 -66 81 -108 14
-65 8 -233 -10 -293 -21 -70 -49 -106 -101 -130 -34 -16 -67 -19 -203 -19
l-163 0 0 500 0 500 168 0 c141 0 173 -3 208 -19z m-2653 -133 c54 -16 112
-73 126 -123 6 -22 11 -102 11 -177 l0 -138 -145 0 -145 0 0 -111 c0 -121 8
-149 45 -149 34 0 45 27 45 109 l0 71 100 0 100 0 0 -68 c0 -174 -67 -256
-219 -269 -95 -8 -167 15 -214 66 -57 63 -62 94 -62 386 l0 260 27 47 c28 46
74 82 126 98 42 13 160 11 205 -2z m570 0 c54 -16 112 -73 126 -123 6 -22 11
-102 11 -177 l0 -138 -145 0 -145 0 0 -118 c0 -125 6 -142 47 -142 32 0 43 28
43 109 l0 71 100 0 100 0 0 -68 c0 -174 -67 -256 -219 -269 -95 -8 -167 15
-214 66 -57 63 -62 94 -62 386 l0 260 27 47 c28 46 74 82 126 98 42 13 160 11
205 -2z m1209 2 c99 -28 140 -103 146 -272 2 -64 2 -128 -2 -142 l-6 -26 -145
0 -145 0 0 -111 c0 -120 8 -149 43 -149 38 0 47 19 47 102 l0 78 106 0 107 0
-7 -77 c-10 -113 -30 -166 -78 -207 -63 -54 -174 -71 -274 -41 -83 25 -126 85
-145 206 -16 107 -8 473 13 519 21 48 73 96 122 114 49 17 166 20 218 6z
m1387 0 c53 -15 100 -51 124 -95 21 -39 22 -52 25 -398 l3 -358 -103 3 -103 3
3 45 3 45 -19 -30 c-36 -57 -59 -70 -122 -70 -113 0 -152 58 -158 233 -4 106
-3 116 23 167 31 63 66 88 188 130 l77 28 0 63 c0 44 -5 67 -16 78 -34 35 -64
11 -64 -51 l0 -43 -100 0 -100 0 0 41 c0 106 49 186 127 207 50 13 169 15 212
2z m579 -72 l-3 -83 -53 -7 c-100 -15 -92 17 -92 -358 l0 -330 -100 0 -100 0
0 425 0 425 100 0 100 0 0 -42 1 -43 15 28 c19 35 70 67 107 67 l28 0 -3 -82z
m984 72 c99 -28 140 -103 146 -272 2 -64 2 -128 -2 -142 l-6 -26 -145 0 -145
0 0 -111 c0 -120 8 -149 43 -149 38 0 47 19 47 102 l0 78 105 0 105 0 0 -32
c0 -55 -20 -159 -37 -192 -39 -78 -111 -116 -218 -116 -146 0 -221 65 -244
211 -14 82 -14 410 -1 480 16 83 70 146 146 169 41 12 162 12 206 0z m568 -75
l0 -85 -32 0 c-47 0 -108 -19 -108 -33 0 -7 0 -157 0 -334 l1 -323 -106 0
-105 0 0 425 0 425 105 0 106 0 -7 -35 c-7 -40 6 -47 25 -12 16 30 59 56 94
57 l27 0 0 -85z"/>
<path d="M7110 2942 c-8 -3 -18 -10 -22 -16 -12 -17 -10 -494 2 -517 6 -11 21
-19 35 -19 14 0 29 8 35 19 13 25 14 470 1 504 -10 27 -28 37 -51 29z"/>
<path d="M2360 2979 l0 -110 37 3 c33 3 38 7 46 38 13 50 4 159 -14 171 -7 5
-26 9 -41 9 l-28 0 0 -111z"/>
<path d="M2360 2565 l0 -145 28 0 c54 0 66 20 70 109 7 136 -10 181 -69 181
l-29 0 0 -145z"/>
<path d="M5540 2980 l0 -110 35 0 c44 0 55 23 55 120 0 78 -13 100 -61 100
l-29 0 0 -110z"/>
<path d="M5540 2565 l0 -145 33 0 c60 0 69 22 65 150 -3 123 -12 140 -70 140
l-28 0 0 -145z"/>
<path d="M2929 2928 c-7 -13 -15 -58 -17 -100 l-5 -78 52 0 51 0 0 74 c0 94
-11 126 -44 126 -16 0 -30 -8 -37 -22z"/>
<path d="M3499 2928 c-7 -13 -15 -58 -17 -100 l-5 -78 52 0 51 0 0 74 c0 94
-11 126 -44 126 -16 0 -30 -8 -37 -22z"/>
<path d="M4716 2934 c-12 -12 -16 -36 -16 -100 l0 -84 45 0 45 0 0 81 c0 44
-5 89 -10 100 -13 23 -43 25 -64 3z"/>
<path d="M6138 2667 c-37 -30 -48 -65 -48 -150 0 -79 15 -120 45 -125 36 -8
45 24 45 165 0 73 -3 133 -7 133 -5 0 -20 -10 -35 -23z"/>
<path d="M7660 2931 c-5 -11 -10 -56 -10 -100 l0 -81 45 0 45 0 0 81 c0 92
-10 119 -45 119 -14 0 -29 -8 -35 -19z"/>
</g>
</svg>
